G04 (Genere par PCBnew (20080825)) le 10/2/2009-14:04:19*
G01*
G70*
G90*
%MOIN*%
G04 Gerber Fmt 3.4, Leading zero omitted, Abs format*
%FSLAX34Y34*%
G04 APERTURE LIST*
%ADD10O,0.052000X0.104000*%
%ADD11C,0.056000*%
%ADD12C,0.131000*%
%ADD13O,0.076000X0.152000*%
%ADD14C,0.050000*%
G04 APERTURE END LIST*
G54D10*
X-09500Y-03000D03*
X-08500Y-03000D03*
X-07500Y-03000D03*
X-06500Y-03000D03*
X-05500Y-03000D03*
X-04500Y-03000D03*
X-03500Y-03000D03*
X-02500Y-03000D03*
X-01500Y-03000D03*
X-00500Y-03000D03*
X00500Y-03000D03*
X01500Y-03000D03*
X02500Y-03000D03*
X03500Y-03000D03*
X04500Y-03000D03*
X05500Y-03000D03*
X06500Y-03000D03*
X07500Y-03000D03*
X08500Y-03000D03*
X09500Y-03000D03*
X09500Y03000D03*
X08500Y03000D03*
X07500Y03000D03*
X06500Y03000D03*
X05500Y03000D03*
X04500Y03000D03*
X03500Y03000D03*
X02500Y03000D03*
X01500Y03000D03*
X00500Y03000D03*
X-00500Y03000D03*
X-01500Y03000D03*
X-02500Y03000D03*
X-03500Y03000D03*
X-04500Y03000D03*
X-05500Y03000D03*
X-06500Y03000D03*
X-07500Y03000D03*
X-08500Y03000D03*
X-09500Y03000D03*
G54D11*
X01070Y-00395D03*
X01070Y00395D03*
X01070Y-01375D03*
G54D12*
X00000Y-02585D03*
X00000Y02585D03*
G54D11*
X01070Y01375D03*
G54D13*
X01000Y00000D03*
X02000Y00000D03*
X03000Y00000D03*
X04000Y00000D03*
X05000Y00000D03*
X06000Y00000D03*
X07000Y00000D03*
X08000Y00000D03*
X09000Y00000D03*
X10000Y00000D03*
X11000Y00000D03*
X12000Y00000D03*
X13000Y00000D03*
X14000Y00000D03*
X15000Y00000D03*
X16000Y00000D03*
G54D14*
X00000Y01000D03*
X-01000Y00000D03*
X00000Y-01000D03*
M02*
